<?xml version="1.0" standalone="no"?>
<!DOCTYPE svg PUBLIC "-//W3C//DTD SVG 20010904//EN"
 "http://www.w3.org/TR/2001/REC-SVG-20010904/DTD/svg10.dtd">
<svg version="1.0" xmlns="http://www.w3.org/2000/svg"
 width="460.000000pt" height="147.000000pt" viewBox="0 0 460.000000 147.000000"
 preserveAspectRatio="xMidYMid meet">

<g transform="translate(0.000000,147.000000) scale(0.100000,-0.100000)"
fill="#000000" stroke="none">
<path d="M1042 1334 c-86 -43 -132 -126 -132 -236 l0 -48 40 20 c49 25 110 26
158 1 69 -35 102 -95 102 -186 l0 -55 85 0 85 0 0 183 0 183 -32 54 c-63 105
-193 140 -306 84z"/>
<path d="M1690 1055 c0 -23 3 -25 50 -25 l50 0 0 -140 0 -140 25 0 25 0 0 140
0 140 45 0 c41 0 45 2 45 25 l0 25 -120 0 -120 0 0 -25z"/>
<path d="M1970 915 l0 -165 105 0 105 0 0 25 c0 24 -2 25 -75 25 l-75 0 0 45
0 45 55 0 c52 0 55 1 55 25 0 24 -3 25 -55 25 l-55 0 0 45 0 45 75 0 c73 0 75
1 75 25 l0 25 -105 0 -105 0 0 -165z"/>
<path d="M2220 915 l0 -165 100 0 100 0 0 25 c0 24 -2 25 -70 25 l-70 0 0 140
0 140 -30 0 -30 0 0 -165z"/>
<path d="M2460 915 l0 -165 100 0 100 0 0 25 c0 24 -2 25 -75 25 l-75 0 0 45
0 45 55 0 c52 0 55 1 55 25 0 24 -3 25 -55 25 l-55 0 0 45 0 45 75 0 c73 0 75
1 75 25 l0 25 -100 0 -100 0 0 -165z"/>
<path d="M2710 1028 c0 -29 -3 -104 -7 -165 l-6 -113 31 0 32 0 0 70 0 70 75
0 75 0 0 -70 c0 -68 1 -70 25 -70 l25 0 0 165 0 165 -25 0 c-24 0 -25 -2 -25
-70 l0 -70 -75 0 -75 0 0 70 c0 68 -1 70 -25 70 -23 0 -25 -3 -25 -52z"/>
<path d="M3020 915 l0 -165 105 0 105 0 0 25 c0 25 -1 25 -80 25 l-80 0 0 45
0 45 60 0 c57 0 60 1 60 25 0 24 -3 25 -60 25 l-60 0 0 45 0 45 80 0 c79 0 80
0 80 25 l0 25 -105 0 -105 0 0 -165z"/>
<path d="M3327 933 c-30 -82 -58 -156 -62 -165 -6 -15 -2 -18 21 -18 24 0 32
7 46 40 l17 40 61 0 62 0 15 -40 c13 -34 21 -40 44 -40 l28 0 -30 83 c-17 45
-45 119 -61 165 -28 75 -33 82 -58 82 -25 0 -30 -8 -83 -147z m112 4 c11 -32
21 -60 21 -62 0 -3 -23 -5 -51 -5 -37 0 -50 4 -46 13 2 6 13 38 23 70 10 31
21 54 25 50 3 -5 16 -34 28 -66z"/>
<path d="M3610 915 l0 -165 100 0 100 0 0 25 c0 24 -2 25 -75 25 l-75 0 0 140
0 140 -25 0 -25 0 0 -165z"/>
<path d="M3790 1055 c0 -23 4 -25 45 -25 l45 0 0 -140 0 -140 30 0 30 0 0 140
0 140 45 0 c41 0 45 2 45 25 l0 25 -120 0 -120 0 0 -25z"/>
<path d="M4070 915 l0 -165 25 0 c24 0 25 2 25 70 l0 70 80 0 80 0 0 -70 c0
-68 1 -70 25 -70 l25 0 0 165 0 165 -25 0 c-23 0 -24 -3 -27 -67 l-3 -68 -75
0 -75 0 -3 68 c-3 64 -4 67 -27 67 l-25 0 0 -165z"/>
<path d="M729 965 c-66 -36 -81 -125 -32 -203 29 -48 156 -152 184 -152 25 0
154 104 179 145 49 79 45 152 -11 199 -38 32 -89 34 -135 5 l-34 -21 -34 21
c-39 24 -80 26 -117 6z"/>
<path d="M380 583 c0 -151 3 -184 19 -218 37 -82 117 -134 205 -135 137 0 232
85 243 219 l4 56 -70 49 c-71 49 -201 175 -201 195 0 7 -34 11 -100 11 l-100
0 0 -177z"/>
</g>
</svg>
